<?xml version="1.0" encoding="UTF-8" standalone="no"?>
<svg
   width="100%"
   height="100%"
   viewBox="0 0 2048 550"
   version="1.1"
   xml:space="preserve"
   style="fill-rule:evenodd;clip-rule:evenodd;stroke-linejoin:round;stroke-miterlimit:2;"
   id="svg13"
   sodipodi:docname="BlenderLogo.svg"
   inkscape:export-filename="../../Documents/HTMLprojects/TZ/public/images/BlenderLogo.svg"
   inkscape:export-xdpi="96"
   inkscape:export-ydpi="96"
   inkscape:version="1.4 (e7c3feb100, 2024-10-09)"
   xmlns:inkscape="http://www.inkscape.org/namespaces/inkscape"
   xmlns:sodipodi="http://sodipodi.sourceforge.net/DTD/sodipodi-0.dtd"
   xmlns="http://www.w3.org/2000/svg"
   xmlns:svg="http://www.w3.org/2000/svg"><defs
   id="defs13" /><sodipodi:namedview
   id="namedview13"
   pagecolor="#ffffff"
   bordercolor="#cccccc"
   borderopacity="1"
   inkscape:showpageshadow="0"
   inkscape:pageopacity="1"
   inkscape:pagecheckerboard="0"
   inkscape:deskcolor="#d1d1d1"
   inkscape:zoom="1.4211189"
   inkscape:cx="1913.633"
   inkscape:cy="118.56854"
   inkscape:window-width="1920"
   inkscape:window-height="1011"
   inkscape:window-x="0"
   inkscape:window-y="0"
   inkscape:window-maximized="1"
   inkscape:current-layer="g14" />
    
<g
   id="g14"
   style="clip-rule:evenodd;fill-rule:evenodd;stroke-linejoin:round;stroke-miterlimit:2;stroke-width:1.0000795;stroke-dasharray:none"
   transform="matrix(4.16667,0,0,4.1666675,-203.04703,2712.0258)"><g
     transform="matrix(2.66418,0,0,2.66418,-517.458,311.83059)"
     id="g2"
     inkscape:export-filename="../../Documents/HTMLprojects/TZ/public/images/BlenderLogo.svg"
     inkscape:export-xdpi="96"
     inkscape:export-ydpi="96"
     style="stroke-width:0.37537985;stroke-dasharray:none">
                    <path
   d="m 243.13,-333.715 c 0.106,-1.891 1.032,-3.557 2.429,-4.738 1.37,-1.16 3.214,-1.869 5.226,-1.869 2.01,0 3.854,0.709 5.225,1.869 1.396,1.181 2.322,2.847 2.429,4.736 0.106,1.943 -0.675,3.748 -2.045,5.086 -1.397,1.361 -3.384,2.215 -5.609,2.215 -2.225,0 -4.216,-0.854 -5.612,-2.215 -1.371,-1.338 -2.15,-3.143 -2.043,-5.084 z"
   style="fill:#ffffff;fill-opacity:1;fill-rule:nonzero;stroke-width:0.37537985;stroke-dasharray:none"
   id="path2" />
                </g><g
     transform="matrix(2.66418,0,0,2.66418,-517.458,311.83059)"
     id="g3"
     style="stroke-width:0.37537985;stroke-dasharray:none">
                    <path
   d="m 230.94,-329.894 c 0.013,0.74 0.249,2.178 0.603,3.301 0.744,2.377 2.006,4.576 3.762,6.514 1.802,1.992 4.021,3.592 6.584,4.728 2.694,1.193 5.613,1.801 8.645,1.796 3.027,-0.004 5.946,-0.624 8.64,-1.826 2.563,-1.147 4.78,-2.754 6.579,-4.747 1.755,-1.946 3.015,-4.149 3.761,-6.526 0.375,-1.201 0.612,-2.42 0.707,-3.643 0.093,-1.205 0.054,-2.412 -0.117,-3.618 -0.334,-2.35 -1.147,-4.555 -2.399,-6.565 -1.145,-1.847 -2.621,-3.464 -4.376,-4.825 l 0.004,-0.003 -17.711,-13.599 c -0.016,-0.012 -0.029,-0.025 -0.046,-0.036 -1.162,-0.892 -3.116,-0.889 -4.394,0.005 -1.292,0.904 -1.44,2.399 -0.29,3.342 l -0.005,0.005 7.387,6.007 -22.515,0.024 h -0.03 c -1.861,0.002 -3.65,1.223 -4.004,2.766 -0.364,1.572 0.9,2.876 2.835,2.883 l -0.003,0.007 11.412,-0.022 -20.364,15.631 c -0.026,0.019 -0.054,0.039 -0.078,0.058 -1.921,1.471 -2.542,3.917 -1.332,5.465 1.228,1.574 3.839,1.577 5.78,0.009 l 11.114,-9.096 c 0,0 -0.162,1.228 -0.149,1.965 z m 28.559,4.112 c -2.29,2.333 -5.496,3.656 -8.965,3.663 -3.474,0.006 -6.68,-1.305 -8.97,-3.634 -1.119,-1.135 -1.941,-2.441 -2.448,-3.832 -0.497,-1.367 -0.69,-2.818 -0.562,-4.282 0.121,-1.431 0.547,-2.796 1.227,-4.031 0.668,-1.214 1.588,-2.311 2.724,-3.239 2.226,-1.814 5.06,-2.796 8.024,-2.8 2.967,-0.004 5.799,0.969 8.027,2.777 1.134,0.924 2.053,2.017 2.721,3.229 0.683,1.234 1.106,2.594 1.232,4.029 0.126,1.462 -0.067,2.911 -0.564,4.279 -0.508,1.395 -1.327,2.701 -2.446,3.841 z"
   style="fill:#ffffff;fill-opacity:1;fill-rule:nonzero;stroke-width:0.37537985;stroke-dasharray:none"
   id="path3" />
                </g><g
     transform="matrix(2.66418,0,0,2.66418,-517.458,311.83059)"
     id="g4"
     style="stroke-width:0.37537985;stroke-dasharray:none">
                    <path
   d="m 364.467,-333.746 c 0.171,-1.908 1.646,-3.118 3.899,-3.118 2.256,0 3.73,1.21 3.901,3.118 z m 7.569,4.711 c -0.577,1.414 -1.937,2.251 -3.784,2.251 -2.313,0 -3.87,-1.444 -3.933,-3.725 h 13.297 v -0.671 c 0,-5.714 -3.354,-8.925 -9.364,-8.925 -5.836,0 -9.365,3.241 -9.365,8.324 0,5.114 3.584,8.35 9.365,8.35 3.469,0 6.159,-1.189 7.817,-3.279 z"
   style="fill:#ffffff;fill-opacity:1;fill-rule:nonzero;stroke-width:0.37537985;stroke-dasharray:none"
   id="path4" />
                </g><g
     transform="matrix(2.66418,0,0,2.66418,-517.458,311.83059)"
     id="g5"
     style="stroke-width:0.37537985;stroke-dasharray:none">
                    <path
   d="m 305.468,-333.737 c 0.176,-1.908 1.651,-3.118 3.906,-3.118 2.252,0 3.726,1.21 3.899,3.118 z m 7.574,4.711 c -0.578,1.418 -1.937,2.255 -3.788,2.255 -2.309,0 -3.87,-1.448 -3.931,-3.73 h 13.294 v -0.667 c 0,-5.717 -3.353,-8.929 -9.363,-8.929 -5.839,0 -9.361,3.242 -9.361,8.325 0,5.114 3.582,8.35 9.361,8.35 3.468,0 6.16,-1.185 7.821,-3.278 z"
   style="fill:#ffffff;fill-opacity:1;fill-rule:nonzero;stroke-width:0.37537985;stroke-dasharray:none"
   id="path5" />
                </g><g
     transform="matrix(2.66418,0,0,2.66418,-517.458,311.83059)"
     id="g6"
     style="stroke-width:0.37537985;stroke-dasharray:none">
                    <rect
   x="293.90701"
   y="-343.56"
   width="4.7950001"
   height="19.617001"
   style="fill:#ffffff;fill-opacity:1;fill-rule:nonzero;stroke-width:0.37537985;stroke-dasharray:none"
   id="rect5" />
                </g><g
     transform="matrix(2.66418,0,0,2.66418,-517.458,311.83059)"
     id="g7"
     style="stroke-width:0.37537985;stroke-dasharray:none">
                    <path
   d="m 319.81,-338.348 h 4.822 v 1.168 c 1.707,-1.822 3.757,-2.743 6.069,-2.743 2.663,0 4.679,0.921 5.72,2.489 0.869,1.295 0.926,2.858 0.926,4.912 v 8.579 h -4.829 v -7.538 c 0,-3.128 -0.629,-4.572 -3.375,-4.572 -2.775,0 -4.511,1.653 -4.511,4.428 v 7.682 h -4.822 z"
   style="fill:#ffffff;fill-opacity:1;fill-rule:nonzero;stroke-width:0.37537985;stroke-dasharray:none"
   id="path6" />
                </g><g
     transform="matrix(2.66418,0,0,2.66418,-517.458,311.83059)"
     id="g8"
     style="stroke-width:0.37537985;stroke-dasharray:none">
                    <path
   d="m 352.876,-331.538 c 0,2.685 -1.794,4.446 -4.57,4.446 -2.778,0 -4.572,-1.701 -4.572,-4.415 0,-2.754 1.77,-4.454 4.572,-4.454 2.776,0 4.57,1.73 4.57,4.423 z m 0,-6.157 c -1.219,-1.307 -2.983,-2.024 -5.435,-2.024 -5.29,0 -8.902,3.262 -8.902,8.151 0,4.793 3.587,8.146 8.815,8.146 2.397,0 4.157,-0.606 5.522,-1.965 v 1.444 h 4.825 v -20.861 l -4.825,1.244 z"
   style="fill:#ffffff;fill-opacity:1;fill-rule:nonzero;stroke-width:0.37537985;stroke-dasharray:none"
   id="path7" />
                </g><g
     transform="matrix(2.66418,0,0,2.66418,-517.458,311.83059)"
     id="g9"
     style="stroke-width:0.37537985;stroke-dasharray:none">
                    <path
   d="m 282.947,-335.961 c 2.804,0 4.567,1.7 4.567,4.454 0,2.714 -1.791,4.415 -4.567,4.415 -2.774,0 -4.566,-1.761 -4.566,-4.446 0,-2.693 1.792,-4.423 4.566,-4.423 z m -4.566,-7.599 -4.827,-1.244 v 20.861 h 4.827 v -1.444 c 1.358,1.359 3.121,1.965 5.52,1.965 5.231,0 8.813,-3.353 8.813,-8.146 0,-4.889 -3.613,-8.151 -8.9,-8.151 -2.457,0 -4.22,0.717 -5.433,2.024 z"
   style="fill:#ffffff;fill-opacity:1;fill-rule:nonzero;stroke-width:0.37537985;stroke-dasharray:none"
   id="path8" />
                </g><g
     transform="matrix(2.66418,0,0,2.66418,-517.458,311.83059)"
     id="g10"
     style="stroke-width:0.37537985;stroke-dasharray:none">
                    <path
   d="m 378.806,-323.943 v -14.405 h 4.825 v 0.89 c 1.445,-1.74 2.974,-2.606 4.713,-2.606 0.345,0 0.779,0.056 1.356,0.113 v 4.107 c -0.465,-0.061 -0.983,-0.061 -1.533,-0.061 -2.805,0 -4.536,1.85 -4.536,4.996 v 6.966 z"
   style="fill:#ffffff;fill-opacity:1;fill-rule:nonzero;stroke-width:0.37537985;stroke-dasharray:none"
   id="path9" />
                </g></g></svg>
