<?xml version="1.0" encoding="UTF-8" standalone="no"?>
<svg
   id="Layer_1"
   data-name="Layer 1"
   viewBox="0 0 343.51998 120"
   version="1.1"
   sodipodi:docname="HoudiniLogo.svg"
   width="343.51999"
   height="120"
   inkscape:version="1.4 (e7c3feb100, 2024-10-09)"
   xmlns:inkscape="http://www.inkscape.org/namespaces/inkscape"
   xmlns:sodipodi="http://sodipodi.sourceforge.net/DTD/sodipodi-0.dtd"
   xmlns="http://www.w3.org/2000/svg"
   xmlns:svg="http://www.w3.org/2000/svg">
  <sodipodi:namedview
     id="namedview12"
     pagecolor="#ffffff"
     bordercolor="#cccccc"
     borderopacity="1"
     inkscape:showpageshadow="0"
     inkscape:pageopacity="1"
     inkscape:pagecheckerboard="0"
     inkscape:deskcolor="#d1d1d1"
     inkscape:zoom="2.0073186"
     inkscape:cx="151.6949"
     inkscape:cy="66.008454"
     inkscape:window-width="1920"
     inkscape:window-height="1011"
     inkscape:window-x="0"
     inkscape:window-y="0"
     inkscape:window-maximized="1"
     inkscape:current-layer="Layer_1" />
  <defs
     id="defs1">
    <style
       id="style1">
      .cls-1 {
        fill: #f26722;
      }

      .cls-1, .cls-2 {
        stroke-width: 0px;
      }

      .cls-2 {
        fill: #fff;
      }
    </style>
  </defs>
  <g
     id="g12"
     transform="translate(0,29.595)">
    <g
       id="g7"
       inkscape:export-filename="/home/thisisfabrics/Documents/HTMLprojects/TZ/public/images/HoudiniLogo.svg"
       inkscape:export-xdpi="96"
       inkscape:export-ydpi="96">
      <path
         class="cls-2"
         d="m 0,2.46 h 12.62 v 22.7 H 35.89 V 2.46 H 48.51 V 59.83 H 35.89 V 36.8 H 12.62 V 59.83 H 0 Z"
         id="path1" />
      <path
         class="cls-2"
         d="m 54.7,38.11 v -0.16 c 0,-12.62 10.16,-22.86 23.85,-22.86 13.69,0 23.68,10.08 23.68,22.7 v 0.16 c 0,12.62 -10.16,22.86 -23.85,22.86 -13.69,0 -23.68,-10.08 -23.68,-22.7 z m 35.24,0 v -0.16 c 0,-6.47 -4.67,-12.13 -11.56,-12.13 -6.89,0 -11.39,5.49 -11.39,11.96 v 0.16 c 0,6.47 4.67,12.13 11.55,12.13 6.88,0 11.39,-5.49 11.39,-11.96 z"
         id="path2" />
      <path
         class="cls-2"
         d="M 107.64,44.34 V 15.9 h 12.46 v 24.5 c 0,5.9 2.79,8.93 7.54,8.93 4.75,0 7.79,-3.03 7.79,-8.93 V 15.9 h 12.46 V 59.83 H 135.43 V 53.6 c -2.87,3.69 -6.56,7.05 -12.87,7.05 -9.42,0 -14.92,-6.23 -14.92,-16.31 z"
         id="path3" />
      <path
         class="cls-2"
         d="m 153.78,37.94 v -0.16 c 0,-14.67 9.59,-22.7 19.99,-22.7 6.64,0 10.74,3.03 13.69,6.56 V 0 h 12.46 v 59.82 h -12.46 v -6.31 c -3.03,4.1 -7.21,7.13 -13.69,7.13 -10.24,0 -19.99,-8.03 -19.99,-22.7 z m 33.84,0 v -0.16 c 0,-7.29 -4.83,-12.13 -10.65,-12.13 -5.82,0 -10.73,4.75 -10.73,12.13 v 0.16 c 0,7.29 4.91,12.13 10.73,12.13 5.82,0 10.65,-4.83 10.65,-12.13 z"
         id="path4" />
      <path
         class="cls-2"
         d="m 208.02,0 h 13.11 v 11.06 h -13.11 z m 0.33,15.9 h 12.46 v 43.93 h -12.46 z"
         id="path5" />
      <path
         class="cls-2"
         d="m 229.25,15.9 h 12.46 v 6.23 c 2.87,-3.69 6.56,-7.05 12.87,-7.05 9.42,0 14.92,6.23 14.92,16.31 v 28.44 h -12.46 v -24.5 c 0,-5.9 -2.79,-8.93 -7.54,-8.93 -4.75,0 -7.79,3.03 -7.79,8.93 v 24.5 h -12.46 z"
         id="path6" />
      <path
         class="cls-2"
         d="m 277.27,0 h 13.11 v 11.06 h -13.11 z m 0.33,15.9 h 12.46 V 59.83 H 277.6 Z"
         id="path7" />
    </g>
    <g
       id="g10"
       style="fill:#ffffff;fill-opacity:1">
      <path
         class="cls-1"
         d="m 299.59,51.83 v 7.99 h 7 c -3.4,-1.93 -5.8,-4.88 -7,-7.99 z"
         id="path8"
         style="fill:#ffffff;fill-opacity:1" />
      <path
         class="cls-1"
         d="m 328.95,43.5 c 0,-7.39 -5.94,-14.5 -14.85,-14.8 -6.31,-0.22 -11.22,2.1 -14.52,5.52 v 7.71 c 2.24,-6.47 8.41,-9.44 13.58,-9.38 6.46,0.06 11.44,4.94 11.47,10.44 0.03,5.26 -2.18,9.14 -8.13,10.09 -3.24,0.52 -8.32,-1.38 -8.1,-6.28 0.12,-2.53 2.09,-3.95 4.34,-3.85 -2.21,2.96 0.72,5.13 2.78,4.68 2.56,-0.55 3.6,-2.82 3.6,-4.58 0,-1.86 -1.75,-4.86 -6.1,-4.76 -5.38,0.13 -8.76,4 -8.88,8.78 -0.14,6.02 5.49,9.98 11.27,10.05 8.49,0.11 13.53,-5.46 13.51,-13.62 z"
         id="path9"
         style="fill:#ffffff;fill-opacity:1" />
      <path
         class="cls-1"
         d="m 299.59,15.9 v 12.64 c 3.78,-2.9 8.69,-4.77 14.52,-4.77 12.46,0 20.38,8.72 20.37,19.7 0,7.63 -3.56,13.37 -9.14,16.36 h 18.18 V 15.9 Z"
         id="path10"
         style="fill:#ffffff;fill-opacity:1" />
    </g>
  </g>
</svg>
