<?xml version="1.0" encoding="UTF-8" standalone="no"?>
<svg
   width="108"
   height="108"
   viewBox="0 0 108 108"
   fill="#fff"
   version="1.1"
   id="svg29"
   sodipodi:docname="LogoInNoHassle.svg"
   inkscape:version="1.3.2 (091e20e, 2023-11-25, custom)"
   xmlns:inkscape="http://www.inkscape.org/namespaces/inkscape"
   xmlns:sodipodi="http://sodipodi.sourceforge.net/DTD/sodipodi-0.dtd"
   xmlns="http://www.w3.org/2000/svg"
   xmlns:svg="http://www.w3.org/2000/svg">
  <sodipodi:namedview
     id="namedview29"
     pagecolor="#ffffff"
     bordercolor="#cccccc"
     borderopacity="1"
     inkscape:showpageshadow="0"
     inkscape:pageopacity="1"
     inkscape:pagecheckerboard="0"
     inkscape:deskcolor="#d1d1d1"
     inkscape:zoom="4"
     inkscape:cx="14.25"
     inkscape:cy="52.5"
     inkscape:window-width="1920"
     inkscape:window-height="1051"
     inkscape:window-x="-9"
     inkscape:window-y="-9"
     inkscape:window-maximized="1"
     inkscape:current-layer="svg29" />
  <path
     d="m 62.264183,38.468184 c -0.137136,0.0092 -0.275501,0.03394 -0.411255,0.06005 -0.273044,0.0536 -0.542096,0.133298 -0.809765,0.255999 -0.267669,0.124083 -0.528889,0.286097 -0.790108,0.479286 -0.261066,0.193342 -0.514453,0.425691 -0.769223,0.688292 l -0.142204,0.148808 c -0.08108,0.0731 -0.162014,0.14374 -0.242945,0.223288 -0.235113,0.227281 -0.445347,0.45579 -0.6413,0.681689 L 1.8099466,99.408326 c -0.254662,0.262448 -0.4818815,0.523668 -0.6686357,0.790104 -0.18544889,0.26645 -0.33692852,0.53273 -0.45185892,0.80317 -0.11491505,0.27028 -0.19719686,0.54839 -0.24289874,0.82266 -0.0457019,0.27427 -0.0509232,0.55116 -0.0274273,0.83065 0.0235113,0.27949 0.0822818,0.55361 0.17500626,0.8371 0.0940144,0.28211 0.22199812,0.56928 0.38524106,0.8566 0.16063234,0.28871 0.35913454,0.56821 0.59420124,0.85676 0.2337615,0.28855 0.5001715,0.59032 0.8031461,0.88409 0.3082113,0.299 0.6229338,0.55899 0.9246031,0.79011 0.3016693,0.22851 0.5942166,0.42968 0.8906031,0.58771 0.295158,0.15802 0.5890875,0.2755 0.877642,0.36426 0.2885546,0.0889 0.574652,0.15019 0.8567567,0.16846 0.2819512,0.0183 0.5614452,-0.001 0.8371,-0.0534 0.2755013,-0.0522 0.541942,-0.14113 0.8096113,-0.26383 0.2690514,-0.1227 0.53411,-0.27949 0.796558,-0.47283 0.2612194,-0.19319 0.5210567,-0.41909 0.7758263,-0.68169 L 62.675593,51.34472 98.848724,87.867833 c 0.257227,0.259838 0.514453,0.488347 0.775673,0.681689 0.262448,0.193189 0.527663,0.349982 0.796553,0.472683 0.26783,0.122855 0.5421,0.218067 0.81622,0.27028 0.27565,0.05237 0.55515,0.06542 0.8371,0.04715 0.2821,-0.01827 0.5616,-0.0797 0.85015,-0.168464 0.28871,-0.08892 0.58249,-0.206395 0.87764,-0.364417 0.29639,-0.158022 0.58894,-0.351364 0.8907,-0.579873 0.30161,-0.229738 0.61642,-0.496179 0.92463,-0.796558 0.30284,-0.29393 0.56928,-0.587706 0.80301,-0.877642 0.23511,-0.288555 0.4323,-0.574652 0.59431,-0.863207 0.16324,-0.287326 0.29117,-0.574652 0.38515,-0.856603 0.0941,-0.282105 0.15802,-0.55776 0.1829,-0.837254 0.0235,-0.278112 0.0118,-0.554995 -0.0339,-0.830496 -0.0458,-0.274273 -0.12792,-0.545935 -0.24294,-0.816215 -0.11487,-0.27028 -0.26645,-0.543324 -0.4518,-0.809611 -0.18551,-0.266441 -0.40358,-0.529042 -0.66081,-0.790108 L 66.323143,40.480695 c -0.05237,-0.05221 -0.09414,-0.103198 -0.148961,-0.155411 -0.02472,-0.0235 -0.0496,-0.03793 -0.07448,-0.06005 l -0.304219,-0.310822 c -0.257227,-0.259991 -0.514607,-0.49495 -0.775673,-0.688293 -0.261219,-0.193188 -0.522438,-0.355203 -0.790108,-0.479286 -0.267823,-0.124083 -0.53672,-0.202403 -0.809765,-0.255998 -0.244173,-0.04822 -0.487118,-0.06788 -0.73513,-0.06004 -0.02872,-0.0012 -0.05882,0.0014 -0.08753,0 -0.109648,-0.0038 -0.22467,-0.01044 -0.33309,-0.0026 z"
     fill="#9747ff"
     id="path3"
     style="display:inline;stroke-width:1" />
  <path
     d="M 28.505297,49.953086 27.05116,49.28706 c -3.260866,-1.493603 -7.114966,-0.06097 -8.60857,3.1999 l -0.666025,1.454137 c -1.493603,3.260866 -0.06081,7.115119 3.200054,8.60857 l 1.454136,0.666025 c 3.260866,1.493604 7.114966,0.06097 8.60857,-3.1999 l 0.666025,-1.45429 c 1.49345,-3.260713 0.06081,-7.114966 -3.200053,-8.608416 z"
     fill="#9747ff"
     id="path4"
     style="display:inline;mix-blend-mode:screen;stroke-width:1" />
  <path
     d="m 24.651965,41.690198 1.672818,1.261869 c 3.733242,2.816133 9.042553,2.072709 11.858686,-1.660532 l 1.255727,-1.664833 C 42.255329,35.893461 41.511905,30.584303 37.778663,27.76817 L 36.105846,26.5063 c -3.733242,-2.816132 -9.0424,-2.072709 -11.858533,1.660533 l -1.25588,1.664832 c -2.816133,3.733242 -2.07271,9.0424 1.660532,11.858533 z"
     fill="#9747ff"
     id="path5"
     style="display:inline;mix-blend-mode:screen;stroke-width:1" />
  <path
     d="m 59.821068,26.356418 2.392899,-1.883206 C 67.580099,20.250548 68.507036,12.477389 64.284372,7.1114109 L 62.401166,4.7184045 C 58.178656,-0.64763522 50.405497,-1.5745419 45.039365,2.6480908 L 42.646467,4.5312049 C 37.280335,8.7538223 36.353397,16.526981 40.576061,21.89296 l 1.883052,2.393052 c 4.222664,5.365978 11.995823,6.292916 17.361955,2.070406 z"
     fill="#9747ff"
     id="path6"
     style="display:inline;mix-blend-mode:screen;stroke-width:1" />
  <defs
     id="defs29">
    <filter
       id="filter0_f_1167_1821"
       x="1.87012"
       y="21.6779"
       width="80.8867"
       height="57.2842"
       filterUnits="userSpaceOnUse"
       color-interpolation-filters="sRGB">
      <feFlood
         flood-opacity="0"
         result="BackgroundImageFix"
         id="feFlood19" />
      <feBlend
         mode="normal"
         in="SourceGraphic"
         in2="BackgroundImageFix"
         result="shape"
         id="feBlend19" />
      <feGaussianBlur
         stdDeviation="3"
         result="effect1_foregroundBlur_1167_1821"
         id="feGaussianBlur19" />
    </filter>
    <filter
       id="filter1_f_1167_1821"
       x="45.5605"
       y="29"
       width="5.71631"
       height="5.71643"
       filterUnits="userSpaceOnUse"
       color-interpolation-filters="sRGB">
      <feFlood
         flood-opacity="0"
         result="BackgroundImageFix"
         id="feFlood20" />
      <feBlend
         mode="normal"
         in="SourceGraphic"
         in2="BackgroundImageFix"
         result="shape"
         id="feBlend20" />
      <feGaussianBlur
         stdDeviation="0.5"
         result="effect1_foregroundBlur_1167_1821"
         id="feGaussianBlur20" />
    </filter>
    <filter
       id="filter2_f_1167_1821"
       x="45.5605"
       y="29"
       width="5.71631"
       height="5.71643"
       filterUnits="userSpaceOnUse"
       color-interpolation-filters="sRGB">
      <feFlood
         flood-opacity="0"
         result="BackgroundImageFix"
         id="feFlood21" />
      <feBlend
         mode="normal"
         in="SourceGraphic"
         in2="BackgroundImageFix"
         result="shape"
         id="feBlend21" />
      <feGaussianBlur
         stdDeviation="0.5"
         result="effect1_foregroundBlur_1167_1821"
         id="feGaussianBlur21" />
    </filter>
    <filter
       id="filter3_f_1167_1821"
       x="29"
       y="45"
       width="5.71631"
       height="5.71643"
       filterUnits="userSpaceOnUse"
       color-interpolation-filters="sRGB">
      <feFlood
         flood-opacity="0"
         result="BackgroundImageFix"
         id="feFlood22" />
      <feBlend
         mode="normal"
         in="SourceGraphic"
         in2="BackgroundImageFix"
         result="shape"
         id="feBlend22" />
      <feGaussianBlur
         stdDeviation="0.5"
         result="effect1_foregroundBlur_1167_1821"
         id="feGaussianBlur22" />
    </filter>
    <filter
       id="filter4_f_1167_1821"
       x="29"
       y="45"
       width="5.71631"
       height="5.71643"
       filterUnits="userSpaceOnUse"
       color-interpolation-filters="sRGB">
      <feFlood
         flood-opacity="0"
         result="BackgroundImageFix"
         id="feFlood23" />
      <feBlend
         mode="normal"
         in="SourceGraphic"
         in2="BackgroundImageFix"
         result="shape"
         id="feBlend23" />
      <feGaussianBlur
         stdDeviation="0.5"
         result="effect1_foregroundBlur_1167_1821"
         id="feGaussianBlur23" />
    </filter>
    <filter
       id="filter5_f_1167_1821"
       x="64"
       y="47"
       width="5.71631"
       height="5.71643"
       filterUnits="userSpaceOnUse"
       color-interpolation-filters="sRGB">
      <feFlood
         flood-opacity="0"
         result="BackgroundImageFix"
         id="feFlood24" />
      <feBlend
         mode="normal"
         in="SourceGraphic"
         in2="BackgroundImageFix"
         result="shape"
         id="feBlend24" />
      <feGaussianBlur
         stdDeviation="0.5"
         result="effect1_foregroundBlur_1167_1821"
         id="feGaussianBlur24" />
    </filter>
    <filter
       id="filter6_f_1167_1821"
       x="64"
       y="47"
       width="5.71631"
       height="5.71643"
       filterUnits="userSpaceOnUse"
       color-interpolation-filters="sRGB">
      <feFlood
         flood-opacity="0"
         result="BackgroundImageFix"
         id="feFlood25" />
      <feBlend
         mode="normal"
         in="SourceGraphic"
         in2="BackgroundImageFix"
         result="shape"
         id="feBlend25" />
      <feGaussianBlur
         stdDeviation="0.5"
         result="effect1_foregroundBlur_1167_1821"
         id="feGaussianBlur25" />
    </filter>
    <filter
       id="filter7_f_1167_1821"
       x="9"
       y="66"
       width="5.71631"
       height="5.71643"
       filterUnits="userSpaceOnUse"
       color-interpolation-filters="sRGB">
      <feFlood
         flood-opacity="0"
         result="BackgroundImageFix"
         id="feFlood26" />
      <feBlend
         mode="normal"
         in="SourceGraphic"
         in2="BackgroundImageFix"
         result="shape"
         id="feBlend26" />
      <feGaussianBlur
         stdDeviation="0.5"
         result="effect1_foregroundBlur_1167_1821"
         id="feGaussianBlur26" />
    </filter>
    <filter
       id="filter8_f_1167_1821"
       x="9"
       y="66"
       width="5.71631"
       height="5.71643"
       filterUnits="userSpaceOnUse"
       color-interpolation-filters="sRGB">
      <feFlood
         flood-opacity="0"
         result="BackgroundImageFix"
         id="feFlood27" />
      <feBlend
         mode="normal"
         in="SourceGraphic"
         in2="BackgroundImageFix"
         result="shape"
         id="feBlend27" />
      <feGaussianBlur
         stdDeviation="0.5"
         result="effect1_foregroundBlur_1167_1821"
         id="feGaussianBlur27" />
    </filter>
    <linearGradient
       id="paint0_linear_1167_1821"
       x1="49"
       y1="32"
       x2="48.5"
       y2="63"
       gradientUnits="userSpaceOnUse">
      <stop
         stop-color="#FB37FF"
         id="stop27" />
      <stop
         offset="0.532291"
         stop-color="#A2FF2C"
         id="stop28" />
      <stop
         offset="1"
         stop-color="#18B2DE"
         id="stop29" />
    </linearGradient>
  </defs>
</svg>
