<?xml version="1.0" encoding="UTF-8" standalone="no"?>
<svg
   id="a"
   viewBox="0 0 349.39999 111.26"
   version="1.1"
   sodipodi:docname="ModoLogo.svg"
   inkscape:version="1.4 (e7c3feb100, 2024-10-09)"
   width="349.39999"
   height="111.26"
   xmlns:inkscape="http://www.inkscape.org/namespaces/inkscape"
   xmlns:sodipodi="http://sodipodi.sourceforge.net/DTD/sodipodi-0.dtd"
   xmlns="http://www.w3.org/2000/svg"
   xmlns:svg="http://www.w3.org/2000/svg">
  <sodipodi:namedview
     id="namedview12"
     pagecolor="#ffffff"
     bordercolor="#cccccc"
     borderopacity="1"
     inkscape:showpageshadow="0"
     inkscape:pageopacity="1"
     inkscape:pagecheckerboard="0"
     inkscape:deskcolor="#d1d1d1"
     inkscape:zoom="1.089673"
     inkscape:cx="134.444"
     inkscape:cy="1.3765598"
     inkscape:window-width="1920"
     inkscape:window-height="1011"
     inkscape:window-x="0"
     inkscape:window-y="0"
     inkscape:window-maximized="1"
     inkscape:current-layer="g13" />
  <defs
     id="defs1">
    <style
       id="style1">
      .cls-1 {
        fill-rule: evenodd;
      }

      .cls-1, .cls-2 {
        fill: #fff;
        stroke-width: 0px;
      }
    </style>
  </defs>
  <g
     id="g13">
    <g
       id="g12"
       transform="translate(0.780002)"
       inkscape:export-filename="ModoLogo.svg"
       inkscape:export-xdpi="96"
       inkscape:export-ydpi="96">
      <path
         class="cls-1"
         d="M 54.8,103.3 C 28,103.3 6.2,81.5 6.2,54.7 6.2,27.9 28,6.1 54.8,6.1 c 26.8,0 48.6,21.8 48.6,48.6 0,26.8 -21.8,48.6 -48.6,48.6 z M 54.7,0.6 C 24.8,0.6 0.6,24.8 0.6,54.7 c 0,29.9 24.2,54.1 54.1,54.1 29.9,0 54.1,-24.2 54.1,-54.1 C 108.8,24.8 84.6,0.6 54.7,0.6 Z"
         id="path1" />
      <path
         class="cls-2"
         d="m 72,45.1 c -0.7,-2.4 -1.2,-4.4 -1.5,-5.9 -1.1,-2.1 -6.8,-2.3 -10.4,-0.9 -3,1.1 -5.8,3.5 -5.7,5.9 0.2,1.3 0.4,2.6 0.7,4.1 1.8,8.1 6.6,23.6 6.1,26.2 0.4,-2 -3.4,-12 -6,-20.1 C 44.5,44.8 36.5,42 30.7,43.6 c -6.1,1.7 -9.4,7.5 -10.4,13.3 -2,11.5 2.9,24 5.2,25.3 0.6,0.3 1.6,1.9 5.9,0.6 2.6,-0.7 5.6,-2.5 6.3,-4.8 0.8,-2.8 -2,-14 -2.1,-19.1 v 0 c 0,-0.4 0,-0.8 0.1,-1.2 0.3,-2.5 1.4,-3.3 3.1,-3.6 -1.3,0.4 -1.8,1.7 -2,3.5 2.6,1 5.2,3.1 11.1,8 7.8,6.6 12.8,14.9 18,16.2 C 72.2,83.4 76.3,80 77.3,73.3 78,68.5 75.4,57.7 73.3,49.8 72.9,48.3 72.4,46.7 72,45.1 Z"
         id="path2" />
      <path
         class="cls-2"
         d="m 59.3,37.5 c -0.7,-2.7 -2.2,-8.9 -1,-12.5 -3.6,2.7 -5.1,7.9 -4.2,16.6 1.1,-1.8 3.2,-3.2 5.2,-4.1 z M 74,37.2 c 2.6,1.3 5.7,3.4 8.2,5.3 1.3,-1.2 3.6,-3.8 4.5,-5 -3.3,-3.6 -7.3,-7.2 -7.3,-7.2 -0.6,-0.5 -1.2,-1.1 -1.8,-1.6 0,0.9 -0.1,1.9 -0.5,3.1 C 76.9,33 76,35.3 74,37.2 Z M 71.3,38 c 0.3,-0.2 0.6,-0.3 0.8,-0.5 l -0.9,-0.3 c 0,0.3 0.1,0.5 0.1,0.8 z m 13.3,13.6 c 1.2,-0.4 2.4,-1.3 3.5,-2.2 1,-0.8 2.1,-2.2 2.7,-3.6 -1,0.8 -2.3,1.5 -3.1,1.7 -0.5,1.5 -2,3.1 -3.1,4.1 z M 70.2,37.5 c -0.4,-2.8 -0.1,-3.8 0,-3.9 0,-0.1 0.1,-0.1 0.1,-0.1 0.5,-0.6 0.7,-4.1 -0.5,-6.4 -1.6,-3.1 -5.7,-4.5 -9.2,-3.4 -2.6,1.1 -1.9,7.8 -0.3,13.4 3,-1 7.6,-1.1 9.9,0.4 z m 21.1,6.3 c -0.1,-1.1 -1.8,-3.2 -3.8,-5.5 -1,1.3 -3.1,3.6 -4.4,4.9 2.1,1.6 3.8,3.1 4.4,3.5 1,-0.3 3.5,-2 3.9,-2.5 0,-0.2 0,-0.3 -0.1,-0.4 z m -9,0 -0.3,0.4 c -1.9,1.7 -3.9,3.4 -5.1,4.1 2.2,1.8 4.4,3.3 6,3.6 1.1,-0.9 3.3,-3 3.9,-4.5 -0.9,-0.7 -2.5,-2.1 -4.5,-3.6 z M 73.1,45 c 0.9,0.8 1.9,1.7 2.9,2.5 1.1,-0.4 3.9,-2.9 5.3,-4.2 l 0.2,-0.2 c -2.7,-2 -5.8,-4.1 -8.3,-5.3 -0.5,0.4 -1.2,0.8 -1.7,1.1 0.3,1.3 0.6,2.9 1.2,4.8 0.1,0.6 0.3,1 0.4,1.3 z M 70.7,26.6 c 0.7,1.3 1,3.1 1,4.6 0,1.3 -0.2,2.3 -0.6,2.8 0,0.1 -0.1,0.4 -0.1,1 0,0.3 0,0.7 0.1,1.2 0.6,0.1 1.2,0.3 2,0.6 3.2,-3 4.2,-7.5 3.5,-9 -3.8,-3 -7.3,-4.8 -10.7,-5.1 2,0.7 3.8,2 4.8,3.9 z"
         id="path3" />
      <path
         class="cls-2"
         d="m 261.6,27.6 c 15.4,0 26.8,10.9 26.8,27.4 0,16.5 -11.2,26.9 -26.5,26.9 h -17.1 c -1.9,0 -3.4,-1.5 -3.4,-3.4 V 31 c 0,-1.9 1.5,-3.4 3.4,-3.4 z m 0.8,44.3 c 8.7,0 15.1,-6.1 15.1,-16.9 0,-10.8 -6.7,-17.5 -15.4,-17.5 H 252 v 34.4 z"
         id="path5" />
      <path
         class="cls-2"
         d="m 292.8,54.7 c 0,-15.8 12.8,-28.6 28.6,-28.6 15.8,0 28.6,12.8 28.6,28.6 0,15.8 -12.8,28.6 -28.6,28.6 -15.8,0 -28.6,-12.8 -28.6,-28.6 z m 28.6,18.2 c 10,0 18.1,-8.1 18.1,-18.1 0,-10 -8.1,-18.2 -18.1,-18.2 -10,0 -18.2,8.1 -18.2,18.2 0,10.1 8.1,18.1 18.2,18.1 z"
         id="path6" />
      <path
         class="cls-2"
         d="m 177.8,54.7 c 0,-15.8 12.8,-28.6 28.6,-28.6 15.8,0 28.6,12.8 28.6,28.6 0,15.8 -12.8,28.6 -28.6,28.6 -15.8,0 -28.6,-12.8 -28.6,-28.6 z m 28.5,18.2 c 10,0 18.2,-8.1 18.2,-18.1 0,-10 -8.1,-18.2 -18.2,-18.2 -10.1,0 -18.1,8.1 -18.1,18.2 0,10.1 8.1,18.1 18.1,18.1 z"
         id="path7" />
      <path
         class="cls-2"
         d="m 163.6,27.6 c -1.2,0 -2.4,0.7 -3,1.8 L 147,54.7 133.4,29.4 c -0.6,-1.1 -1.7,-1.8 -3,-1.8 h -4.5 c -0.9,0 -1.8,0.4 -2.4,1 -0.6,0.6 -1,1.5 -1,2.4 v 47.5 c 0,1.9 1.5,3.4 3.4,3.4 h 3.5 c 0.9,0 1.8,-0.3 2.4,-1 0.6,-0.6 1,-1.5 1,-2.4 v -32 l 10.8,20 c 0.6,1.1 1.7,1.8 3,1.8 h 1.2 c 1.2,0 2.4,-0.7 3,-1.8 l 10.8,-20 v 32 c 0,0.9 0.4,1.8 1,2.4 0.6,0.6 1.5,1 2.4,1 h 3.5 c 1.9,0 3.4,-1.5 3.4,-3.4 V 31 c 0,-0.9 -0.4,-1.8 -1,-2.4 -0.6,-0.6 -1.5,-1 -2.4,-1 z"
         id="path8" />
    </g>
  </g>
</svg>
