<?xml version="1.0" encoding="UTF-8" standalone="no"?>
<!-- Created with Inkscape (http://www.inkscape.org/) -->

<svg
   width="396"
   height="52"
   viewBox="0 0 396 52"
   version="1.1"
   id="svg1"
   inkscape:version="1.4 (e7c3feb100, 2024-10-09)"
   sodipodi:docname="OneZeroEight.svg"
   xmlns:inkscape="http://www.inkscape.org/namespaces/inkscape"
   xmlns:sodipodi="http://sodipodi.sourceforge.net/DTD/sodipodi-0.dtd"
   xmlns="http://www.w3.org/2000/svg"
   xmlns:svg="http://www.w3.org/2000/svg">
  <sodipodi:namedview
     id="namedview1"
     pagecolor="#ffffff"
     bordercolor="#000000"
     borderopacity="0"
     inkscape:showpageshadow="2"
     inkscape:pageopacity="0.0"
     inkscape:pagecheckerboard="0"
     inkscape:deskcolor="#2e2e2e"
     inkscape:document-units="px"
     inkscape:zoom="1.097325"
     inkscape:cx="186.36229"
     inkscape:cy="15.036566"
     inkscape:window-width="1536"
     inkscape:window-height="795"
     inkscape:window-x="0"
     inkscape:window-y="0"
     inkscape:window-maximized="1"
     inkscape:current-layer="layer1" />
  <defs
     id="defs1" />
  <g
     inkscape:label="Layer 1"
     inkscape:groupmode="layer"
     id="layer1">
    <path
       style="font-weight:600;font-size:53.3333px;line-height:1.1;font-family:Rubik;-inkscape-font-specification:'Rubik Semi-Bold';stroke-width:40;stroke-linecap:round;stroke-linejoin:round;fill:#ffffff;fill-opacity:1"
       d="m 14.160224,40.159992 q -4.4266637,0 -7.4133286,-1.439999 Q 3.7602305,37.226661 2.1602315,34.506662 0.61356575,31.786664 0.45356584,28.16 q -0.0533333,-1.066666 -0.0533333,-2.399999 0,-1.386666 0.0533333,-2.399999 0.15999991,-3.679997 1.81333226,-6.346662 1.6533323,-2.719999 4.6399972,-4.159998 2.9866649,-1.493332 7.2533287,-1.493332 4.213331,0 7.199996,1.493332 2.986665,1.439999 4.639997,4.159998 1.653333,2.666665 1.813333,6.346662 0.106666,1.013333 0.106666,2.399999 0,1.333333 -0.106666,2.399999 -0.16,3.626664 -1.759999,6.346662 -1.546666,2.719999 -4.533331,4.213331 -2.986665,1.439999 -7.359996,1.439999 z m 0,-5.866663 q 2.613332,0 3.946665,-1.599999 1.333332,-1.653332 1.439999,-4.799997 0.05333,-0.799999 0.05333,-2.133332 0,-1.333333 -0.05333,-2.133332 -0.106667,-3.093332 -1.439999,-4.746664 -1.333333,-1.653332 -3.946665,-1.653332 -2.613331,0 -3.999997,1.653332 -1.3333328,1.653332 -1.4399994,4.746664 -0.053333,0.799999 -0.053333,2.133332 0,1.333333 0.053333,2.133332 0.1066666,3.146665 1.4399994,4.799997 1.386666,1.599999 3.999997,1.599999 z m 20.63998,5.33333 q -0.533333,0 -0.906666,-0.373333 -0.373333,-0.373333 -0.373333,-0.959999 V 13.226675 q 0,-0.586666 0.373333,-0.959999 0.373333,-0.373333 0.906666,-0.373333 h 5.226664 q 0.586666,0 0.959999,0.373333 0.373333,0.373333 0.373333,0.959999 v 2.079999 q 1.386666,-1.706666 3.573332,-2.826665 2.186665,-1.119999 5.33333,-1.119999 3.146665,0 5.49333,1.439999 2.399998,1.386666 3.733331,4.106664 1.386666,2.666665 1.386666,6.506663 v 14.879991 q 0,0.586666 -0.426667,0.959999 -0.373333,0.373333 -0.906666,0.373333 h -5.65333 q -0.586666,0 -0.959999,-0.373333 -0.373333,-0.373333 -0.373333,-0.959999 V 23.733336 q 0,-2.826665 -1.386666,-4.373331 -1.333333,-1.599999 -3.946664,-1.599999 -2.506666,0 -3.999998,1.599999 -1.493332,1.546666 -1.493332,4.373331 v 14.559991 q 0,0.586666 -0.373334,0.959999 -0.373333,0.373333 -0.906666,0.373333 z m 44.853276,0.533333 q -6.13333,0 -9.759994,-3.413331 -3.573332,-3.413331 -3.786665,-9.919994 0,-0.426666 0,-1.119999 0,-0.746667 0,-1.173333 0.213333,-4.106664 1.866666,-7.039996 1.653332,-2.986665 4.639997,-4.53333 2.986665,-1.599999 6.986663,-1.599999 4.479997,0 7.466662,1.866665 3.039998,1.813332 4.53333,5.01333 1.546666,3.146665 1.546666,7.253329 V 26.72 q 0,0.533333 -0.426666,0.906667 Q 92.346806,28 91.813473,28 h -17.43999 q 0,0.05333 0,0.213333 0,0.106666 0,0.213333 0.05333,1.706666 0.64,3.146665 0.639999,1.386666 1.759999,2.239999 1.173332,0.853332 2.773331,0.853332 1.333333,0 2.186666,-0.373333 0.853332,-0.373333 1.386665,-0.906666 0.586667,-0.533333 0.853333,-0.906666 0.48,-0.533333 0.746666,-0.64 0.32,-0.16 0.96,-0.16 h 5.546663 q 0.533333,0 0.853333,0.32 0.373333,0.266667 0.32,0.8 -0.05333,0.853333 -0.906666,2.133332 -0.8,1.226666 -2.399999,2.453332 -1.599999,1.173332 -3.999997,1.973332 -2.346666,0.799999 -5.439997,0.799999 z M 74.373483,23.146669 H 84.82681 v -0.106666 q 0,-1.919999 -0.64,-3.306665 -0.586666,-1.439999 -1.759998,-2.239999 -1.173333,-0.799999 -2.826665,-0.799999 -1.653333,0 -2.826665,0.799999 -1.173333,0.8 -1.813333,2.239999 -0.586666,1.386666 -0.586666,3.306665 z M 99.600081,27.04 q -0.533333,0 -0.906666,-0.373333 -0.373333,-0.373333 -0.373333,-0.906666 v -4.266664 q 0,-0.533333 0.373333,-0.906666 0.373333,-0.373333 0.906666,-0.373333 h 16.586659 q 0.53333,0 0.90666,0.373333 0.37334,0.373333 0.37334,0.906666 v 4.266664 q 0,0.533333 -0.37334,0.906666 Q 116.72007,27.04 116.18674,27.04 Z m 23.573289,12.586659 q -0.53334,0 -0.90667,-0.373333 -0.37333,-0.373333 -0.37333,-0.959999 v -3.573331 q 0,-0.533333 0.21333,-0.96 0.26667,-0.426666 0.58667,-0.799999 l 13.06665,-14.879991 h -12.10666 q -0.58666,0 -0.95999,-0.373334 -0.37334,-0.373333 -0.37334,-0.906666 v -3.573331 q 0,-0.586666 0.37334,-0.959999 0.37333,-0.373333 0.95999,-0.373333 h 20.79999 q 0.58667,0 0.96,0.373333 0.37334,0.373333 0.37334,0.959999 v 3.839998 q 0,0.48 -0.21334,0.853333 -0.21333,0.373333 -0.53333,0.746666 l -12.79999,14.773324 h 13.33332 q 0.53333,0 0.90667,0.373334 0.37333,0.373333 0.37333,0.906666 v 3.573331 q 0,0.586666 -0.37333,0.959999 -0.37334,0.373333 -0.90667,0.373333 z m 40.96004,0.533333 q -6.13333,0 -9.76,-3.413331 -3.57333,-3.413331 -3.78666,-9.919994 0,-0.426666 0,-1.119999 0,-0.746667 0,-1.173333 0.21333,-4.106664 1.86666,-7.039996 1.65334,-2.986665 4.64,-4.53333 2.98667,-1.599999 6.98666,-1.599999 4.48,0 7.46667,1.866665 3.03999,1.813332 4.53333,5.01333 1.54666,3.146665 1.54666,7.253329 V 26.72 q 0,0.533333 -0.42666,0.906667 Q 176.82673,28 176.2934,28 h -17.43999 q 0,0.05333 0,0.213333 0,0.106666 0,0.213333 0.0533,1.706666 0.64,3.146665 0.64,1.386666 1.76,2.239999 1.17333,0.853332 2.77333,0.853332 1.33333,0 2.18667,-0.373333 0.85333,-0.373333 1.38666,-0.906666 0.58667,-0.533333 0.85333,-0.906666 0.48,-0.533333 0.74667,-0.64 0.32,-0.16 0.96,-0.16 h 5.54666 q 0.53334,0 0.85334,0.32 0.37333,0.266667 0.32,0.8 -0.0533,0.853333 -0.90667,2.133332 -0.8,1.226666 -2.4,2.453332 -1.6,1.173332 -4,1.973332 -2.34666,0.799999 -5.43999,0.799999 z m -5.28,-17.013323 h 10.45333 v -0.106666 q 0,-1.919999 -0.64,-3.306665 -0.58667,-1.439999 -1.76,-2.239999 -1.17333,-0.799999 -2.82667,-0.799999 -1.65333,0 -2.82666,0.799999 -1.17333,0.8 -1.81333,2.239999 -0.58667,1.386666 -0.58667,3.306665 z m 25.38661,16.47999 q -0.53334,0 -0.90667,-0.373333 -0.37333,-0.373333 -0.37333,-0.959999 V 13.226675 q 0,-0.533333 0.37333,-0.906666 0.37333,-0.426666 0.90667,-0.426666 h 5.22666 q 0.53333,0 0.90667,0.426666 0.42666,0.373333 0.42666,0.906666 v 2.133332 q 1.33333,-1.653332 3.25333,-2.559998 1.97334,-0.906666 4.53333,-0.906666 h 2.29334 q 0.53333,0 0.90666,0.373333 0.37334,0.373333 0.37334,0.959999 v 4.586664 q 0,0.586666 -0.37334,0.959999 -0.37333,0.373334 -0.90666,0.373334 h -4.69333 q -2.34667,0 -3.68,1.333332 -1.33333,1.279999 -1.33333,3.679998 v 14.133325 q 0,0.586666 -0.37334,0.959999 -0.37333,0.373333 -0.96,0.373333 z m 34.29325,0.533333 q -4.42666,0 -7.41333,-1.439999 -2.98666,-1.493332 -4.58666,-4.213331 -1.54667,-2.719998 -1.70667,-6.346662 -0.0533,-1.066666 -0.0533,-2.399999 0,-1.386666 0.0533,-2.399999 0.16,-3.679997 1.81333,-6.346662 1.65334,-2.719999 4.64,-4.159998 2.98667,-1.493332 7.25333,-1.493332 4.21333,0 7.2,1.493332 2.98666,1.439999 4.63999,4.159998 1.65334,2.666665 1.81334,6.346662 0.10666,1.013333 0.10666,2.399999 0,1.333333 -0.10666,2.399999 -0.16,3.626664 -1.76,6.346662 -1.54667,2.719999 -4.53333,4.213331 -2.98667,1.439999 -7.36,1.439999 z m 0,-5.866663 q 2.61333,0 3.94667,-1.599999 1.33333,-1.653332 1.43999,-4.799997 0.0533,-0.799999 0.0533,-2.133332 0,-1.333333 -0.0533,-2.133332 -0.10666,-3.093332 -1.43999,-4.746664 -1.33334,-1.653332 -3.94667,-1.653332 -2.61333,0 -4,1.653332 -1.33333,1.653332 -1.44,4.746664 -0.0533,0.799999 -0.0533,2.133332 0,1.333333 0.0533,2.133332 0.10667,3.146665 1.44,4.799997 1.38667,1.599999 4,1.599999 z M 239.01326,27.04 q -0.53333,0 -0.90667,-0.373333 -0.37333,-0.373333 -0.37333,-0.906666 v -4.266664 q 0,-0.533333 0.37333,-0.906666 0.37334,-0.373333 0.90667,-0.373333 h 16.58666 q 0.53333,0 0.90666,0.373333 0.37334,0.373333 0.37334,0.906666 v 4.266664 q 0,0.533333 -0.37334,0.906666 Q 256.13325,27.04 255.59992,27.04 Z m 36.79999,13.119992 q -6.13333,0 -9.76,-3.413331 -3.57333,-3.413331 -3.78666,-9.919994 0,-0.426666 0,-1.119999 0,-0.746667 0,-1.173333 0.21333,-4.106664 1.86666,-7.039996 1.65334,-2.986665 4.64,-4.53333 2.98667,-1.599999 6.98666,-1.599999 4.48,0 7.46667,1.866665 3.03999,1.813332 4.53333,5.01333 1.54666,3.146665 1.54666,7.253329 V 26.72 q 0,0.533333 -0.42666,0.906667 Q 288.50657,28 287.97324,28 h -17.43999 q 0,0.05333 0,0.213333 0,0.106666 0,0.213333 0.0533,1.706666 0.64,3.146665 0.64,1.386666 1.76,2.239999 1.17333,0.853332 2.77333,0.853332 1.33333,0 2.18667,-0.373333 0.85333,-0.373333 1.38666,-0.906666 0.58667,-0.533333 0.85333,-0.906666 0.48,-0.533333 0.74667,-0.64 0.32,-0.16 0.96,-0.16 h 5.54666 q 0.53334,0 0.85334,0.32 0.37333,0.266667 0.32,0.8 -0.0533,0.853333 -0.90667,2.133332 -0.8,1.226666 -2.4,2.453332 -1.6,1.173332 -4,1.973332 -2.34666,0.799999 -5.43999,0.799999 z m -5.28,-17.013323 h 10.45333 v -0.106666 q 0,-1.919999 -0.64,-3.306665 -0.58667,-1.439999 -1.76,-2.239999 -1.17333,-0.799999 -2.82667,-0.799999 -1.65333,0 -2.82666,0.799999 -1.17333,0.8 -1.81333,2.239999 -0.58667,1.386666 -0.58667,3.306665 z m 25.38659,16.47999 q -0.53333,0 -0.90667,-0.373333 -0.37333,-0.373333 -0.37333,-0.959999 V 13.226675 q 0,-0.586666 0.37333,-0.959999 0.37334,-0.373333 0.90667,-0.373333 h 5.33333 q 0.58667,0 0.96,0.373333 0.37333,0.373333 0.37333,0.959999 v 25.066652 q 0,0.586666 -0.37333,0.959999 -0.37333,0.373333 -0.96,0.373333 z m -0.16,-31.9999805 q -0.53333,0 -0.90667,-0.3733331 -0.37333,-0.3733332 -0.37333,-0.9599995 V 2.0266818 q 0,-0.5866663 0.37333,-0.9599994 0.37334,-0.42666644 0.90667,-0.42666644 h 5.6 q 0.58666,0 0.96,0.42666644 0.42666,0.3733331 0.42666,0.9599994 v 4.2666641 q 0,0.5866663 -0.42666,0.9599995 -0.37334,0.3733331 -0.96,0.3733331 z m 26.50667,43.7333075 q -3.94666,0 -6.56,-1.066666 -2.61333,-1.013333 -4.15999,-2.506665 -1.49334,-1.44 -2.13334,-2.879999 -0.64,-1.439999 -0.69333,-2.239998 -0.0533,-0.586667 0.37333,-0.96 0.42667,-0.373333 0.96,-0.373333 h 5.70667 q 0.48,0 0.8,0.213333 0.37333,0.266667 0.58666,0.853333 0.26667,0.64 0.74667,1.333333 0.48,0.746666 1.44,1.226666 1.01333,0.479999 2.66666,0.479999 1.86667,0 3.09333,-0.533333 1.22667,-0.533333 1.81334,-1.813332 0.64,-1.279999 0.64,-3.466665 v -3.573331 q -1.28,1.386666 -3.25333,2.293332 -1.92,0.906666 -4.74667,0.906666 -2.77333,0 -4.90666,-0.853333 -2.08,-0.906666 -3.46667,-2.506665 -1.38666,-1.653332 -2.13333,-3.946664 -0.74667,-2.293332 -0.85333,-5.17333 -0.0533,-1.439999 0,-2.826665 0.10666,-2.773332 0.85333,-5.066664 0.74667,-2.293332 2.13333,-3.946664 1.38667,-1.706666 3.46667,-2.613332 2.13333,-0.959999 4.90666,-0.959999 2.93333,0 5.01333,1.119999 2.08,1.119999 3.41333,2.773332 v -2.026666 q 0,-0.533333 0.37334,-0.906666 0.37333,-0.426666 0.90666,-0.426666 h 5.22667 q 0.53333,0 0.90666,0.426666 0.42667,0.373333 0.42667,0.906666 l 0.0533,25.653318 q 0,3.999998 -1.54666,6.773329 -1.54667,2.773332 -4.58667,4.213331 -2.98666,1.493333 -7.46666,1.493333 z M 321.99984,33.01333 q 1.92,0 3.09333,-0.853333 1.22667,-0.906666 1.81334,-2.239998 0.58666,-1.386666 0.64,-2.879999 0.0533,-0.586666 0.0533,-1.653332 0,-1.119999 -0.0533,-1.706666 -0.0533,-1.493332 -0.64,-2.826665 -0.58667,-1.386666 -1.81334,-2.239998 -1.17333,-0.853333 -3.09333,-0.853333 -2.02666,0 -3.2,0.906666 -1.17333,0.853333 -1.70666,2.293332 -0.53333,1.439999 -0.64,3.146665 -0.0533,1.279999 0,2.506665 0.10667,1.759999 0.64,3.199998 0.53333,1.439999 1.70666,2.346665 1.17334,0.853333 3.2,0.853333 z m 21.91999,6.613329 q -0.58667,0 -0.96,-0.373333 -0.37333,-0.373333 -0.37333,-0.959999 V 3.0933478 q 0,-0.5866663 0.37333,-0.9599994 0.37333,-0.3733331 0.96,-0.3733331 h 5.76 q 0.53333,0 0.90666,0.3733331 0.37334,0.3733331 0.37334,0.9599994 V 15.093341 q 1.43999,-1.706666 3.51999,-2.719999 2.08,-1.013332 5.01333,-1.013332 3.14667,0 5.54667,1.439999 2.45333,1.386666 3.83999,4.106664 1.38667,2.666665 1.38667,6.506663 v 14.879991 q 0,0.586666 -0.37333,0.959999 -0.37334,0.373333 -0.96,0.373333 h -5.81333 q -0.53333,0 -0.90667,-0.373333 -0.37333,-0.373333 -0.37333,-0.959999 V 23.733336 q 0,-2.826665 -1.38667,-4.373331 -1.38666,-1.599999 -3.94666,-1.599999 -2.50667,0 -4.05333,1.599999 -1.49333,1.546666 -1.49333,4.373331 v 14.559991 q 0,0.586666 -0.37334,0.959999 -0.37333,0.373333 -0.90666,0.373333 z m 45.75994,0 q -3.30666,0 -5.65333,-1.066666 -2.34666,-1.119999 -3.57333,-3.413331 -1.17333,-2.293332 -1.17333,-5.759997 V 18.186672 h -4.16 q -0.58667,0 -0.96,-0.373333 -0.37333,-0.373333 -0.37333,-0.959999 v -3.626665 q 0,-0.586666 0.37333,-0.959999 0.37333,-0.373333 0.96,-0.373333 h 4.16 V 3.0933478 q 0,-0.5866663 0.37333,-0.9599994 0.42667,-0.3733331 0.96,-0.3733331 h 5.22666 q 0.58667,0 0.96,0.3733331 0.37334,0.3733331 0.37334,0.9599994 v 8.7999952 h 6.66666 q 0.53333,0 0.90666,0.373333 0.37334,0.373333 0.37334,0.959999 v 3.626665 q 0,0.586666 -0.37334,0.959999 -0.37333,0.373333 -0.90666,0.373333 h -6.66666 v 10.559994 q 0,2.026665 0.69333,3.199998 0.74667,1.119999 2.56,1.119999 h 3.89333 q 0.53333,0 0.90666,0.373333 0.37334,0.373334 0.37334,0.906667 v 3.946664 q 0,0.586666 -0.37334,0.959999 -0.37333,0.373333 -0.90666,0.373333 z"
       id="text1"
       aria-label="one-zero-eight" />
  </g>
</svg>
