<?xml version="1.0" encoding="UTF-8" standalone="no"?>
<!-- Generator: Adobe Illustrator 27.8.1, SVG Export Plug-In . SVG Version: 6.00 Build 0)  -->

<svg
   version="1.1"
   id="Layer_1"
   x="0px"
   y="0px"
   viewBox="0 0 93.2 112"
   style="enable-background:new 0 0 93.2 112;"
   xml:space="preserve"
   sodipodi:docname="svelte-logo-cutout.svg"
   inkscape:version="1.4 (e7c3feb100, 2024-10-09)"
   xmlns:inkscape="http://www.inkscape.org/namespaces/inkscape"
   xmlns:sodipodi="http://sodipodi.sourceforge.net/DTD/sodipodi-0.dtd"
   xmlns="http://www.w3.org/2000/svg"
   xmlns:svg="http://www.w3.org/2000/svg"><defs
   id="defs1" /><sodipodi:namedview
   id="namedview1"
   pagecolor="#ffffff"
   bordercolor="#cccccc"
   borderopacity="1"
   inkscape:showpageshadow="0"
   inkscape:pageopacity="1"
   inkscape:pagecheckerboard="0"
   inkscape:deskcolor="#d1d1d1"
   inkscape:zoom="5.2767857"
   inkscape:cx="46.524535"
   inkscape:cy="56"
   inkscape:window-width="1536"
   inkscape:window-height="795"
   inkscape:window-x="0"
   inkscape:window-y="0"
   inkscape:window-maximized="1"
   inkscape:current-layer="Layer_1" />
<style
   type="text/css"
   id="style1">
	.st0{fill:#FF3E00;}
</style>
<path
   class="st0"
   d="M87.3,14.8L87.3,14.8C76.9-0.1,56.3-4.5,41.5,5L15.4,21.6c-7.1,4.5-12,11.8-13.5,20c-1.2,6.9-0.2,14,3.1,20.2  c-2.2,3.4-3.8,7.2-4.5,11.2C-1,81.5,1,90.2,5.9,97.2c10.4,14.9,30.9,19.3,45.8,9.8l26.1-16.6c7.1-4.5,12-11.8,13.5-20  c1.2-6.9,0.2-14-3.1-20.2c2.2-3.4,3.8-7.2,4.5-11.2C94.2,30.5,92.2,21.8,87.3,14.8z M79.8,36.2c-0.2,0.8-0.4,1.6-0.6,2.4l-0.5,1.5  l-1.3-1c-3.1-2.3-6.5-4-10.2-5.1l-1-0.3l0.1-1c0.1-1.4-0.3-2.7-1.1-3.9c-1.5-2.2-4.2-3.1-6.7-2.5c-0.6,0.2-1.1,0.4-1.6,0.7  L30.8,43.7c-1.3,0.8-2.2,2.1-2.4,3.6c-0.3,1.5,0.1,3.1,1,4.4c1.5,2.2,4.2,3.1,6.7,2.5c0.6-0.2,1.1-0.4,1.6-0.7l10-6.3  c1.6-1,3.4-1.8,5.3-2.3c8.4-2.2,17.3,1.1,22.2,8.2c3,4.2,4.2,9.4,3.3,14.5c-0.9,5-3.8,9.4-8.1,12.1L44.2,96.3  c-1.6,1-3.4,1.8-5.3,2.3h0c-8.4,2.2-17.3-1.1-22.2-8.2c-3-4.2-4.2-9.4-3.3-14.5c0.2-0.8,0.4-1.6,0.6-2.4l0.5-1.5l1.3,1  c3.1,2.3,6.5,4,10.2,5.1l1,0.3l-0.1,1c-0.1,1.4,0.3,2.8,1.1,3.9c1.5,2.2,4.2,3.1,6.7,2.5c0.6-0.2,1.1-0.4,1.6-0.7l26.1-16.6  c1.3-0.8,2.2-2.1,2.5-3.6c0.3-1.5-0.1-3.1-1-4.4c-1.5-2.2-4.2-3.1-6.7-2.5c-0.6,0.2-1.1,0.4-1.6,0.7l-10,6.3c-1.6,1-3.4,1.8-5.3,2.3  C31.9,69.4,23,66.1,18,58.9c-3-4.2-4.2-9.4-3.3-14.5c0.9-5,3.8-9.4,8.1-12.1L49,15.7c1.6-1,3.4-1.8,5.3-2.3  c8.4-2.2,17.3,1.1,22.2,8.2C79.5,25.9,80.7,31.1,79.8,36.2z"
   id="path1"
   style="fill:#ffffff;fill-opacity:1" />
</svg>
